<svg width="55" height="50" viewBox="0 0 55 50" fill="none" xmlns="http://www.w3.org/2000/svg">
<path d="M51.8796 25.1093C51.869 25.1202 51.9142 25.1093 51.7443 25.1093C49.9534 25.1093 48.7154 26.7955 49.3396 28.3668C49.039 28.6884 50.3361 27.372 28.4003 49.5271C27.7756 50.157 26.7708 50.1582 26.1449 49.5271C4.21584 27.3776 5.50929 28.6917 5.20573 28.3668C5.85464 26.7332 4.49809 25.022 2.66786 25.1127C2.66679 25.1115 2.66679 25.1104 2.66573 25.1095C0.850419 22.2296 -0.060805 19.1053 0.00314809 15.8987C0.250966 3.31323 15.3772 -5.96655 27.2727 4.59726C39.1615 -5.96071 54.2944 3.30663 54.5423 15.8987C54.6063 19.1053 53.6949 22.2296 51.8796 25.1093Z" fill="#ED6A72"/>
<path d="M51.8821 25.1088C51.8715 25.1196 51.9167 25.1088 51.7468 25.1088C49.9557 25.1088 48.7177 26.795 49.342 28.3663C49.0414 28.6879 50.3385 27.3715 28.4012 49.5271C28.0889 49.842 27.6817 50 27.2734 50V4.59624C34.6791 -1.98002 43.919 -1.1401 49.8046 4.83325C55.0381 10.1467 56.2443 18.1887 51.8821 25.1088Z" fill="#E0565F"/>
<path d="M51.8175 25.0651C51.1126 26.2048 50.2705 27.3071 49.2944 28.3622H37.479C36.8921 28.3622 36.353 28.0292 36.0745 27.495L31.6164 18.936L25.3115 32.6945C24.7776 33.8593 23.1996 33.9732 22.5248 32.8736L17.9561 25.4531L16.7313 27.562C16.4432 28.0588 15.9243 28.3621 15.364 28.3621H5.24958C4.27355 27.307 3.43148 26.2047 2.72656 25.065H14.4613L16.5484 21.4691C17.1519 20.427 18.6195 20.3897 19.2607 21.4328L23.6646 28.5852L30.0832 14.5783C30.6451 13.357 32.3092 13.3154 32.9295 14.5025L38.4316 25.065H51.8175V25.0651Z" fill="#F8F8F8"/>
<path d="M32.9308 14.4181C32.3117 13.2231 30.6475 13.2605 30.0846 14.4946L27.2734 20.683V28.454L31.6177 18.8905L36.0758 27.5248C36.3544 28.0635 36.8934 28.3996 37.4803 28.3996H49.2959C50.2719 27.3353 51.114 26.2233 51.8189 25.0736H38.433L32.9308 14.4181Z" fill="#EBEBEB"/>
</svg>
