<svg width="120" height="120" viewBox="0 0 120 120" fill="none" xmlns="http://www.w3.org/2000/svg">
<path d="M30.7031 15.4688C22.7578 17.1563 16.2187 22.1485 12.6797 29.2266C8.27344 38.0157 9.1875 48.7032 14.9531 56.3907C15.7266 57.3985 25.4062 68.5313 36.4688 81.0938C50.3438 96.8204 56.8828 104.109 57.5391 104.461C58.7812 105.164 61.0312 105.211 62.3438 104.531C63.1875 104.109 67.0078 100.055 69.0469 97.4297C70.7109 95.2969 70.5703 92.625 68.6953 90.7032C66.4453 88.3829 63.0703 88.5938 60.8672 91.1954C60 92.2266 59.9766 92.2266 59.5781 91.7344C59.3672 91.4766 51.2109 82.2188 41.4844 71.1563C31.7578 60.0938 23.2969 50.3204 22.6875 49.4297C21.2109 47.25 20.3672 44.625 20.2266 41.7188C19.9922 37.3125 21.4453 33.4688 24.4922 30.2579C29.5078 25.0313 36.7031 23.6719 43.0078 26.8125C44.7891 27.6797 46.1016 28.6875 51.0938 32.9297C54.375 35.7188 57.3984 38.1797 57.7734 38.3907C58.2188 38.625 59.0391 38.7657 60 38.7657C60.9609 38.7657 61.7812 38.625 62.2266 38.3907C62.625 38.1797 65.6016 35.7422 68.8594 32.9766C76.2891 26.6485 78.0703 25.6407 82.7344 25.1719C90.2109 24.4219 97.8047 30.0938 99.4687 37.6641C100.219 41.0157 99.7734 44.6719 98.1797 48.0469C96.9375 50.7188 97.3125 53.1094 99.2344 54.7969C101.156 56.461 104.109 56.3907 105.984 54.6094C107.742 52.9219 109.477 48.0469 109.969 43.4532C110.977 33.7735 106.172 24.0704 97.7812 18.8204C91.0312 14.6016 82.0781 13.7813 74.4141 16.6875C71.1797 17.8829 68.8359 19.4532 64.2188 23.3672L60 26.9766L55.7812 23.3907C53.4609 21.3985 50.7188 19.2657 49.6875 18.6563C47.3906 17.2735 44.2031 16.0313 41.3672 15.4454C38.5312 14.8594 33.4922 14.8594 30.7031 15.4688Z" fill="#FE7294"/>
<path d="M87.6562 60.4688C86.4844 61.0781 85.6172 62.0625 85.1953 63.2578C84.9141 64.0547 84.8437 65.4141 84.8437 69.6328V75H79.2187C74.0859 75 73.5 75.0469 72.6797 75.4453C69.2344 77.2031 68.9531 81.9844 72.1406 84.2578L73.1719 84.9609L78.9844 85.0312L84.8203 85.1016L84.8906 90.7734C84.9609 96.3281 84.9844 96.4688 85.5469 97.5C85.875 98.0625 86.6016 98.8594 87.1406 99.2578C88.0781 99.8906 88.3359 99.9609 90 99.9609C91.6641 99.9609 91.9219 99.8906 92.8594 99.2578C93.3984 98.8594 94.125 98.0625 94.4531 97.5C95.0156 96.4688 95.0391 96.3281 95.1094 90.7734L95.1797 85.1016L101.016 85.0312L106.828 84.9609L107.859 84.2578C111.023 82.0078 110.742 77.2031 107.32 75.4688C106.5 75.0469 105.937 75 100.781 75H95.1562V69.7031C95.1562 66.3984 95.0625 64.0547 94.8984 63.4922C94.5469 62.3203 93.4453 61.0312 92.3203 60.4688C91.125 59.8594 88.8047 59.8594 87.6562 60.4688Z" fill="#0179F6"/>
</svg>
