<svg width="37" height="56" viewBox="0 0 37 56" fill="none" xmlns="http://www.w3.org/2000/svg">
<path d="M33.3784 26.5053C32.271 24.912 30.6122 23.8419 28.7011 23.5008C28.6076 23.4821 28.5142 23.4728 28.4207 23.4588C31.8084 21.6925 34.3456 18.3937 34.9764 14.3331C35.4857 11.0576 34.6867 7.77744 32.7336 5.09535C30.7757 2.41326 27.8974 0.656349 24.6265 0.147032C17.8652 -0.899637 11.5105 3.7543 10.4638 10.5249C9.95448 13.8005 10.7535 17.0806 12.7067 19.7627C12.9637 20.1179 13.2393 20.4543 13.529 20.7767C13.4823 20.7673 13.4403 20.758 13.3935 20.7487C11.4871 20.4076 9.55731 20.8281 7.96861 21.9402C3.96884 24.7297 1.29142 28.9164 0.43166 33.7245C-0.428104 38.5327 0.632585 43.3876 3.4128 47.3967C6.19769 51.4058 10.375 54.0925 15.1738 54.9523C16.2625 55.1486 17.3513 55.242 18.4306 55.242C22.1267 55.242 25.7293 54.1159 28.8226 51.9572C32.8223 49.1676 35.4997 44.9809 36.3595 40.1728C37.2239 35.3693 36.1633 30.5145 33.3784 26.5053Z" fill="white"/>
<path d="M15.6925 52.0601C19.7156 52.7844 23.7808 51.8919 27.1404 49.5462C30.4954 47.2053 32.7429 43.6914 33.4671 39.6543C34.1867 35.6171 33.2989 31.5426 30.9626 28.1783C29.6029 26.2205 26.9161 25.7392 24.963 27.0989C23.0098 28.4633 22.5285 31.1548 23.8883 33.1126C24.9069 34.5845 25.2947 36.3648 24.9817 38.1263C24.6639 39.8879 23.6827 41.4252 22.2201 42.4485C20.7529 43.4718 18.9773 43.8597 17.2204 43.5466C15.4635 43.2288 13.9309 42.2476 12.9122 40.7757C11.8936 39.3038 11.5058 37.5236 11.8188 35.762C12.1366 34.0004 13.1178 32.4631 14.5804 31.4398C16.5335 30.0754 17.0148 27.384 15.6551 25.4261C14.2953 23.4683 11.6086 22.987 9.65542 24.3514C6.30048 26.6924 4.05294 30.2062 3.32868 34.2434C2.6091 38.2805 3.4969 42.3551 5.83321 45.7194C8.16486 49.0883 11.6693 51.3359 15.6925 52.0601Z" fill="#B29CCB"/>
<path d="M21.2669 21.8046C26.4208 22.6036 31.271 19.0477 32.07 13.8798C32.8737 8.71184 29.3318 3.85699 24.1733 3.05797C19.0194 2.25895 14.1692 5.81481 13.3701 10.9827C12.5665 16.1507 16.1083 21.0055 21.2669 21.8046Z" fill="#FAB651"/>
</svg>
